<?xml version="1.0" standalone="no"?>
<!DOCTYPE svg PUBLIC "-//W3C//DTD SVG 1.1//EN" "http://www.w3.org/Graphics/SVG/1.1/DTD/svg11.dtd" >
<svg xmlns="http://www.w3.org/2000/svg">
<metadata></metadata>
<defs>
<font id="FontSiteSansCdBlkItalic" horiz-adv-x="972" >
<font-face units-per-em="2048" ascent="1690" descent="-358" />
<missing-glyph horiz-adv-x="512" />
<glyph unicode="&#xfb01;" horiz-adv-x="1003" d="M18 0l177 823h-107l43 197h105l16 76q37 172 110.5 236.5t233.5 64.5q45 0 129 -8l-43 -203h-49q-39 0 -58.5 -22t-31.5 -79l-15 -65h125l-41 -197h-127l-174 -823h-293zM516 0l217 1020h291l-217 -1020h-291zM760 1151l51 244h293l-51 -244h-293z" />
<glyph unicode="&#xfb02;" horiz-adv-x="999" d="M18 0l177 823h-107l43 197h105l16 76q37 172 110.5 236.5t233.5 64.5q45 0 129 -8l-43 -203h-49q-39 0 -58.5 -22t-31.5 -79l-15 -65h125l-41 -197h-127l-174 -823h-293zM516 0l289 1366h291l-291 -1366h-289z" />
<glyph unicode="&#xfb03;" horiz-adv-x="1488" d="M18 0l177 823h-107l43 197h105l16 76q37 172 110.5 236.5t233.5 64.5q45 0 129 -8l-43 -203h-49q-39 0 -58.5 -22t-31.5 -79l-15 -65h193l16 76q37 172 110.5 236.5t233.5 64.5q45 0 129 -8l-43 -203h-49q-40 0 -61 -22.5t-31 -78.5l-12 -65h125l-41 -197h-127l-174 -823 h-293l176 823h-195l-174 -823h-293zM1001 0l218 1020h290l-217 -1020h-291zM1245 1151l51 244h293l-51 -244h-293z" />
<glyph unicode="&#xfb04;" horiz-adv-x="1484" d="M18 0l177 823h-107l43 197h105l16 76q37 172 110.5 236.5t233.5 64.5q45 0 129 -8l-43 -203h-49q-39 0 -58.5 -22t-31.5 -79l-15 -65h193l16 76q37 172 110.5 236.5t233.5 64.5q45 0 129 -8l-43 -203h-49q-40 0 -61 -22.5t-31 -78.5l-12 -65h125l-41 -197h-127l-174 -823 h-293l176 823h-195l-174 -823h-293zM1001 0l289 1366h291l-291 -1366h-289z" />
<glyph horiz-adv-x="0" />
<glyph horiz-adv-x="2048" />
<glyph unicode=" "  horiz-adv-x="512" />
<glyph unicode="&#x09;" horiz-adv-x="512" />
<glyph unicode="&#xa0;" horiz-adv-x="512" />
<glyph unicode="!" horiz-adv-x="552" d="M10 0l66 307h315l-65 -307h-316zM186 434l27 547l82 385h328l-88 -418l-185 -514h-164z" />
<glyph unicode="&#x22;" horiz-adv-x="780" d="M197 817l73 549h244l-158 -549h-159zM551 817l76 549h241l-157 -549h-160z" />
<glyph unicode="#" horiz-adv-x="974" d="M20 0l111 387h-104l57 209h102l58 201h-103l58 209h100l102 360h236l-105 -360h138l102 360h238l-103 -360h103l-58 -209h-100l-57 -201h104l-57 -209h-105l-108 -387h-244l113 387h-136l-110 -387h-232zM422 596h135l55 201h-135z" />
<glyph unicode="$" d="M31 301q0 37 14 117h250q-12 -52 -12 -94q0 -67 41 -106.5t108 -39.5q54 0 115 39q57 39 57 123q0 78 -57 141q-20 25 -40.5 43t-123.5 103q-85 75 -150 174q-63 98 -63 203q0 101 54.5 187t146.5 130q80 38 231 43l23 106h106l-24 -110q121 -32 170 -74 q100 -83 100 -231q0 -21 -6 -64h-248q6 43 6 53q0 54 -38 87.5t-99 33.5q-65 0 -108.5 -36.5t-43.5 -90.5q0 -63 47 -123q17 -22 34 -38t116 -103q132 -117 186 -209.5t54 -202.5q0 -107 -53 -197t-144 -136q-49 -26 -108.5 -37.5t-157.5 -14.5l-39 -180h-107l39 185 q-110 21 -164 65q-53 41 -82.5 108t-29.5 146z" />
<glyph unicode="%" horiz-adv-x="1492" d="M176 922q0 67 28 171t60 158q35 59 90.5 85t147.5 26q233 0 233 -178q0 -85 -31 -204.5t-65 -162.5q-38 -47 -91.5 -67.5t-139.5 -20.5q-121 0 -176.5 46.5t-55.5 146.5zM344 -25l748 1411h151l-751 -1411h-148zM371 920q0 -27 14.5 -42.5t40.5 -15.5q29 0 48 26t32 87 l22 104q17 63 17 95q0 23 -14.5 38t-36.5 15q-66 0 -95 -137q-28 -142 -28 -170zM831 197q0 67 28 171t61 158q36 59 90.5 85t146.5 26q234 0 234 -178q0 -85 -31.5 -204.5t-65.5 -162.5q-38 -47 -91.5 -67.5t-139.5 -20.5q-121 0 -176.5 46.5t-55.5 146.5zM1026 195 q0 -27 14.5 -42.5t40.5 -15.5q29 0 48 26t32 87l23 104q16 59 16 95q0 23 -14.5 38t-36.5 15q-65 0 -94 -137q-29 -147 -29 -170z" />
<glyph unicode="&#x26;" horiz-adv-x="1126" d="M31 350q0 200 141 332q63 57 164 121q-46 87 -66 152t-20 132q0 139 91 222.5t243 83.5q156 0 250 -80.5t94 -214.5q0 -140 -111 -254q-31 -32 -65 -57t-97 -62l117 -233q38 72 74 188h239q-19 -106 -74.5 -230t-119.5 -202l127 -248h-295l-35 66q-80 -56 -138 -76.5 t-134 -20.5q-174 0 -279.5 104.5t-105.5 276.5zM305 393q0 -74 44 -124t108 -50t127 49l-154 312q-66 -40 -95.5 -84t-29.5 -103zM498 1110q0 -70 61 -178q64 54 88.5 92.5t24.5 85.5q0 41 -23.5 65.5t-62.5 24.5q-38 0 -63 -25t-25 -65z" />
<glyph unicode="'" horiz-adv-x="438" d="M197 817l73 549h258l-159 -549h-172z" />
<glyph unicode="(" horiz-adv-x="595" d="M63 334q0 270 91.5 523t281.5 509h244q-99 -148 -147.5 -239.5t-92.5 -219.5q-62 -176 -96.5 -360.5t-34.5 -341.5q0 -229 62 -424h-209q-99 281 -99 553z" />
<glyph unicode=")" horiz-adv-x="595" d="M-61 -219q97 142 145 235.5t94 225.5q62 175 96.5 361t34.5 343q0 228 -61 420h207q100 -271 100 -551q0 -270 -91 -522t-282 -512h-243z" />
<glyph unicode="*" horiz-adv-x="841" d="M164 1112l88 150l188 -109l39 229l172 -32l-49 -232l229 35l19 -178l-229 -14l96 -193l-160 -72l-84 197l-158 -148l-116 127l163 140z" />
<glyph unicode="+" horiz-adv-x="974" d="M160 631l39 184h243l58 277h202l-59 -277h246l-39 -184h-246l-61 -289h-203l63 289h-243z" />
<glyph unicode="," horiz-adv-x="487" d="M-70 -285l23 105q86 4 126.5 42.5t65.5 137.5h-170l66 307h317l-57 -272q-35 -167 -123.5 -243.5t-247.5 -76.5z" />
<glyph unicode="-" horiz-adv-x="382" d="M-29 377l56 260h381l-54 -260h-383z" />
<glyph unicode="." horiz-adv-x="487" d="M-25 0l66 307h315l-65 -307h-316z" />
<glyph unicode="/" horiz-adv-x="655" d="M-137 -219l692 1585h223l-692 -1585h-223z" />
<glyph unicode="0" d="M51 293q0 97 52.5 363t101.5 421q33 102 72 157.5t104 90.5q85 49 231 49q186 0 284.5 -75.5t98.5 -217.5q0 -100 -57.5 -398.5t-101.5 -430.5q-51 -152 -143 -217.5t-253 -65.5q-204 0 -296.5 77.5t-92.5 246.5zM346 291q-2 -41 21.5 -65.5t66.5 -24.5q58 0 92 57 q11 21 15.5 38.5t23.5 102.5q133 626 133 660q0 35 -23 59.5t-57 24.5q-53 0 -79 -42t-54 -169l-59 -262q-77 -318 -80 -379z" />
<glyph unicode="1" d="M217 926l43 200q170 9 268.5 65.5t147.5 174.5h217l-291 -1366h-309l201 944q-73 -12 -117 -15t-160 -3z" />
<glyph unicode="2" d="M-12 0q10 118 34.5 201.5t86 173.5t154 178.5t251.5 218.5q88 71 124 128t36 126q0 51 -26 82t-68 31q-84 0 -111 -92q-18 -67 -18 -140v-4h-291q20 247 119 358t299 111q192 0 296.5 -91.5t104.5 -258.5q0 -177 -107 -299q-77 -87 -280 -244q-109 -85 -157 -129t-89 -98 h500l-53 -252h-805z" />
<glyph unicode="3" d="M47 324q0 38 6 118h289l-8 -53q-6 -50 -6 -82q0 -51 25 -80.5t67 -29.5q64 0 92 51q45 78 45 205q0 82 -44.5 114.5t-156.5 32.5l50 229q20 -2 53 -2q59 0 93 10.5t60 36.5q28 28 44 72.5t16 91.5q0 109 -84 109q-51 0 -79.5 -39.5t-39.5 -124.5h-287q25 205 123 297 t293 92q178 0 273.5 -86.5t95.5 -247.5q0 -290 -269 -360q86 -44 122 -105.5t36 -164.5q0 -104 -38.5 -197t-104.5 -152q-103 -90 -289 -90q-197 0 -289 105q-41 46 -64.5 112t-23.5 138z" />
<glyph unicode="4" d="M2 258l45 262l627 846h311l-188 -885h123l-48 -223h-122l-56 -262h-295l56 262h-453zM281 481h221l110 455z" />
<glyph unicode="5" d="M70 332q0 18 6 94h280q-8 -79 -8 -111q0 -120 88 -120q74 0 109 94q53 141 53 289q0 61 -25 95t-71 34q-79 0 -111 -84h-274l205 718h667l-53 -249h-422l-65 -228q89 43 159 43q137 0 215 -96.5t78 -265.5q0 -145 -47.5 -276t-124.5 -199q-110 -101 -289 -101 q-182 0 -276 92.5t-94 270.5z" />
<glyph unicode="6" d="M68 303q0 66 13.5 153.5t55.5 284.5q52 249 89 352.5t96 168.5q54 60 125 86t180 26q186 0 274 -77t88 -238q0 -31 -2 -51h-291q4 36 4 43q0 47 -20.5 72.5t-58.5 25.5q-42 0 -67.5 -25.5t-46 -89.5t-44.5 -196q85 43 160 43q123 0 198.5 -87.5t75.5 -230.5 q0 -129 -39 -257.5t-104 -211.5q-101 -125 -314 -125q-372 0 -372 334zM356 299q0 -106 82 -106q39 0 65 28t48 94q18 54 33.5 135.5t15.5 120.5q0 51 -22.5 79t-63.5 28q-74 0 -111 -119q-19 -58 -33 -137t-14 -123z" />
<glyph unicode="7" d="M182 0q43 229 198 553.5t318 527.5h-497l55 260h813l-47 -217q-154 -185 -315.5 -533.5t-204.5 -590.5h-320z" />
<glyph unicode="8" d="M55 346q0 325 242 410q-54 43 -76 91t-22 124q0 92 31 172.5t87 134.5q101 94 281 94q183 0 281 -87t98 -251q0 -81 -23 -153.5t-63 -116.5q-40 -45 -131 -84q62 -50 87 -103t25 -135q0 -114 -36 -211.5t-101 -160.5q-104 -101 -291 -101q-389 0 -389 377zM346 326 q0 -136 96 -136q39 0 68.5 29.5t45 77.5t23 98t7.5 101q0 55 -23.5 84.5t-66.5 29.5q-72 0 -107 -80q-17 -36 -30 -99.5t-13 -104.5zM473 934q0 -55 24 -84t68 -29q33 0 59.5 21t41.5 59q28 79 28 152q0 102 -90 102q-52 0 -82 -43q-21 -32 -35 -82.5t-14 -95.5z" />
<glyph unicode="9" d="M49 295v37h289q-6 -30 -6 -49q0 -41 24 -67t64 -26q58 0 91 67.5t62 248.5q-49 -26 -82.5 -35.5t-74.5 -9.5q-128 0 -201.5 87t-73.5 238q0 114 33 231t88 200q107 155 336 155q185 0 279 -82t94 -243q0 -85 -15.5 -178t-70.5 -341q-49 -218 -76.5 -296t-73.5 -136 q-54 -66 -131.5 -96.5t-193.5 -30.5q-183 0 -272 80.5t-89 245.5zM436 770q0 -108 84 -108q38 0 64 24t45 76q23 62 38 143t15 139q0 48 -21.5 74.5t-60.5 26.5q-72 0 -108 -105q-21 -58 -38.5 -142t-17.5 -128z" />
<glyph unicode=":" horiz-adv-x="487" d="M-25 0l66 307h315l-65 -307h-316zM127 707l63 307h316l-64 -307h-315z" />
<glyph unicode=";" horiz-adv-x="524" d="M-33 -285l23 105q86 4 126.5 42.5t65.5 137.5h-170l66 307h317l-57 -272q-35 -167 -123.5 -243.5t-247.5 -76.5zM127 707l66 307h315l-66 -307h-315z" />
<glyph unicode="&#x3c;" horiz-adv-x="1024" d="M68 553v262l886 467v-311l-557 -289l557 -287v-311z" />
<glyph unicode="=" horiz-adv-x="974" d="M154 440l39 185h622l-41 -185h-620zM236 823l38 185h621l-39 -185h-620z" />
<glyph unicode="&#x3e;" horiz-adv-x="1024" d="M137 84v311l555 287l-555 289v311l887 -467v-262z" />
<glyph unicode="?" horiz-adv-x="870" d="M139 979q14 203 120 308.5t298 105.5q175 0 284 -95t109 -249q0 -132 -82 -246q-36 -52 -151 -148q-87 -74 -120 -116.5t-60 -110.5h-275q22 128 66 195.5t186 193.5q60 52 93.5 114t33.5 118q0 52 -26.5 83t-69.5 31q-62 0 -92 -59q-17 -36 -27 -125h-287zM154 0l65 307 h316l-64 -307h-317z" />
<glyph unicode="@" horiz-adv-x="1280" d="M121 604q0 212 90.5 394t245.5 288.5t336 106.5q220 0 355.5 -150t135.5 -393q0 -87 -23.5 -181.5t-65 -176.5t-108 -135.5t-143.5 -53.5q-60 0 -102 21t-86 75q-61 -52 -106.5 -72t-100.5 -20q-146 0 -146 144q0 113 86 354q44 127 101 185.5t137 58.5q54 0 83.5 -24 t41.5 -79l22 82h160l-133 -444q-22 -76 -22 -117q0 -39 20 -62.5t53 -23.5q51 0 100 66.5t80 173.5t31 217q0 195 -104.5 314.5t-274.5 119.5q-106 0 -204.5 -53t-170 -142t-114.5 -211t-43 -254q0 -200 96 -346q114 -172 342 -172q91 0 168 25.5t176 87.5l43 -88 q-117 -83 -205 -115.5t-198 -32.5q-249 0 -401 173.5t-152 459.5zM569 492q0 -29 13 -45.5t36 -16.5q61 0 99 96q34 85 61 182t27 132q0 63 -51 63q-38 0 -65.5 -39t-61.5 -141q-58 -181 -58 -231z" />
<glyph unicode="A" horiz-adv-x="993" d="M-104 0l581 1366h389l13 -1366h-316l15 264h-254l-93 -264h-335zM401 498h191l39 612z" />
<glyph unicode="B" horiz-adv-x="1019" d="M-8 0l291 1366h366q198 0 291.5 -75.5t93.5 -233.5q0 -147 -56 -239t-173 -136q70 -37 101.5 -94.5t31.5 -149.5q0 -134 -51 -241t-137 -150q-54 -28 -114.5 -37.5t-184.5 -9.5h-459zM356 227h41q107 0 152 31q34 26 55 82.5t21 120.5q0 70 -36.5 100.5t-119.5 30.5h-35z M483 823q18 -2 45 -2q98 0 138 37q25 23 41 70t16 98q0 61 -33.5 87t-111.5 26h-29z" />
<glyph unicode="C" horiz-adv-x="1005" d="M57 317q0 115 40.5 322t103.5 410q57 185 163.5 268.5t284.5 83.5q387 0 387 -352q0 -79 -20 -181h-311q30 120 30 176q0 52 -24 79.5t-68 27.5q-54 0 -89 -46.5t-58 -150.5q-127 -550 -127 -643q0 -44 26.5 -72t67.5 -28q77 0 119 108q23 63 45 185h313 q-35 -162 -68 -247.5t-86 -150.5q-58 -73 -139.5 -107t-200.5 -34q-389 0 -389 352z" />
<glyph unicode="D" horiz-adv-x="1042" d="M-8 0l291 1366h354q78 0 153 -15t115 -38q65 -38 103.5 -114t38.5 -165q0 -74 -28 -258t-58 -305q-47 -188 -109 -290t-154 -142q-85 -39 -260 -39h-446zM369 248h28q91 0 134 26.5t71 98.5q37 95 82 318t45 308q0 68 -30.5 95t-108.5 28q-19 0 -35 2z" />
<glyph unicode="E" horiz-adv-x="921" d="M-8 0l291 1366h731l-58 -268h-407l-53 -258h395l-57 -267h-396l-65 -307h432l-57 -266h-756z" />
<glyph unicode="F" horiz-adv-x="899" d="M-8 0l291 1366h743l-57 -268h-420l-53 -256h405l-57 -267h-406l-123 -575h-323z" />
<glyph unicode="G" horiz-adv-x="1036" d="M59 319q0 138 46.5 363t115.5 416q57 159 160.5 231t275.5 72q379 0 379 -338q0 -52 -14 -164h-309q2 16 13 73.5t11 80.5q0 44 -27 72t-69 28q-57 0 -87 -45.5t-62 -179.5q-121 -495 -121 -615q0 -46 26.5 -75t67.5 -29q60 0 98.5 67.5t69.5 225.5h-119l49 233h436 l-155 -735h-219l28 129q-66 -90 -131 -127t-157 -37q-73 0 -134.5 25t-99.5 69q-72 86 -72 260z" />
<glyph unicode="H" horiz-adv-x="1067" d="M-8 0l291 1366h323l-108 -518h215l108 518h326l-291 -1366h-324l121 575h-215l-123 -575h-323z" />
<glyph unicode="I" horiz-adv-x="528" d="M-8 0l291 1366h323l-291 -1366h-323z" />
<glyph unicode="J" horiz-adv-x="821" d="M-12 262q0 76 24 193h244q-33 -141 -33 -185q0 -32 17 -51.5t43 -19.5q37 0 53 33t45 169l205 965h325l-215 -1006q-27 -123 -52.5 -185t-68.5 -107q-51 -55 -113.5 -79t-152.5 -24q-321 0 -321 297z" />
<glyph unicode="K" horiz-adv-x="1001" d="M-8 0l291 1366h317l-119 -563l340 563h348l-467 -623l193 -743h-328l-104 485l-82 -120l-78 -365h-311z" />
<glyph unicode="L" horiz-adv-x="880" d="M-8 0l291 1366h323l-233 -1100h428l-56 -266h-753z" />
<glyph unicode="M" horiz-adv-x="1449" d="M-8 0l291 1366h442l-2 -838l350 838h455l-291 -1366h-305l203 954l-394 -954h-245l8 954l-203 -954h-309z" />
<glyph unicode="N" horiz-adv-x="1073" d="M-8 0l295 1366h336l67 -733l156 733h305l-291 -1366h-332l-69 731l-156 -731h-311z" />
<glyph unicode="O" horiz-adv-x="1028" d="M57 322q0 119 50.5 366t105.5 397q61 169 162.5 242.5t271.5 73.5q195 0 295 -89.5t100 -262.5q0 -175 -90 -535q-40 -165 -81.5 -267t-100.5 -167t-133.5 -90t-185.5 -25q-179 0 -283 82q-60 47 -85.5 110.5t-25.5 164.5zM367 317q0 -49 25 -76.5t69 -27.5q49 0 81.5 39 t55.5 125q34 130 84.5 385.5t50.5 294.5q0 43 -27 69.5t-71 26.5q-53 0 -80.5 -38t-56.5 -150q-34 -132 -82.5 -372.5t-48.5 -275.5z" />
<glyph unicode="P" horiz-adv-x="997" d="M-8 0l291 1366h356q118 0 190 -16.5t123 -55.5q111 -82 111 -278q0 -136 -44 -241t-124 -159q-118 -79 -363 -79h-102l-115 -537h-323zM481 778q29 -2 68 -2q190 0 190 230q0 72 -37.5 97t-144.5 25z" />
<glyph unicode="Q" horiz-adv-x="1028" d="M59 319q0 131 51.5 384.5t108.5 400.5q62 160 160.5 228.5t267.5 68.5q197 0 297 -88.5t100 -263.5q0 -202 -112 -619q-29 -108 -51.5 -164t-63.5 -125l164 -170l-186 -170l-174 189q-97 -25 -170 -25q-191 0 -299 94q-93 81 -93 260zM367 319q0 -51 25 -78.5t69 -27.5 q58 0 91 53t64 195q44 205 105 483q14 60 14 115q0 44 -26 70t-72 26q-38 0 -64 -21.5t-45 -68.5q-25 -65 -93 -379.5t-68 -366.5z" />
<glyph unicode="R" horiz-adv-x="1040" d="M-8 0l291 1366h366q206 0 310 -76t104 -250q0 -306 -250 -389q66 -20 96.5 -56.5t30.5 -96.5q0 -61 -41 -316q-6 -30 -6 -67q0 -54 31 -115h-344q-11 40 -11 68q0 26 1.5 43t11 79t32.5 203q9 65 9 70q0 69 -64 92q-31 8 -123 10l-121 -565h-323zM487 801h56 q109 0 149 43q23 23 38 70.5t15 95.5q0 70 -39 95t-149 25z" />
<glyph unicode="S" horiz-adv-x="944" d="M6 285q0 49 23 188h293q-25 -93 -25 -135q0 -60 34 -94.5t91 -34.5q61 0 98 38t37 101q0 47 -28.5 87.5t-149.5 164.5q-134 136 -178.5 217t-44.5 187q0 177 106 286q108 111 318 111q187 0 291 -80t104 -225q0 -48 -19 -162h-280q14 77 14 117q0 50 -29.5 79t-80.5 29 q-53 0 -87 -35t-34 -90q0 -53 30.5 -94t165.5 -168q116 -110 161.5 -195.5t45.5 -193.5q0 -199 -121.5 -308.5t-332.5 -109.5q-204 0 -306 88q-44 40 -70 103t-26 129z" />
<glyph unicode="T" horiz-adv-x="888" d="M143 1100l58 266h850l-58 -266h-248l-233 -1100h-332l244 1100h-281z" />
<glyph unicode="U" horiz-adv-x="1044" d="M63 299q0 92 25 209l182 858h326l-193 -909q-24 -122 -24 -156q0 -41 25.5 -65.5t68.5 -24.5q56 0 84 49q19 35 34 85.5t42 178.5l178 842h324l-201 -946q-15 -67 -28.5 -116t-33.5 -99t-43.5 -84.5t-57 -66t-75 -50t-96 -29t-121.5 -10.5q-115 0 -206 30.5t-142 86.5 q-68 74 -68 217z" />
<glyph unicode="V" horiz-adv-x="989" d="M186 1366h326l-39 -973l350 973h342l-581 -1366h-373z" />
<glyph unicode="W" horiz-adv-x="1443" d="M193 0v1366h309l-62 -969l293 969h309l-55 -969l295 969h317l-514 -1366h-340l62 897l-275 -897h-339z" />
<glyph unicode="X" horiz-adv-x="980" d="M-59 0l395 698l-184 668h319l70 -405l180 405h362l-391 -690l209 -676h-321l-88 416l-193 -416h-358z" />
<glyph unicode="Y" horiz-adv-x="929" d="M152 1366h331l76 -412l197 412h362l-442 -756l-129 -610h-326l135 637z" />
<glyph unicode="Z" horiz-adv-x="876" d="M-31 0l51 242l512 864h-374l55 260h737l-51 -248l-510 -858h412l-56 -260h-776z" />
<glyph unicode="[" horiz-adv-x="591" d="M-57 -219l336 1585h419l-32 -156h-160l-270 -1269h159l-35 -160h-417z" />
<glyph unicode="\" horiz-adv-x="655" d="M250 1366h223l12 -1585h-223z" />
<glyph unicode="]" horiz-adv-x="591" d="M-82 -219l33 156h160l270 1269h-160l33 160h420l-338 -1585h-418z" />
<glyph unicode="^" horiz-adv-x="1024" d="M72 715l309 657h346l309 -657h-276l-205 448l-207 -448h-276z" />
<glyph unicode="_" horiz-adv-x="1024" d="M0 -115h1024v-186h-1024v186z" />
<glyph unicode="`" horiz-adv-x="1024" d="M375 1399h248l118 -275h-163z" />
<glyph unicode="a" horiz-adv-x="929" d="M2 236q0 105 42 186.5t114 116.5q36 17 168 53q12 3 31.5 8.5t50.5 14.5t57 16q79 23 109 54t30 89q0 37 -26.5 59.5t-69.5 22.5q-55 0 -88 -38.5t-41 -112.5h-279q20 113 46 168.5t77 95.5q104 82 297 82q183 0 276 -70t93 -207q0 -31 -17 -121l-88 -424 q-26 -128 -26 -178q0 -18 8 -51h-289l17 76q-63 -57 -120.5 -82t-125.5 -25q-115 0 -180.5 71t-65.5 196zM291 264q0 -38 24 -62t62 -24q51 0 88 39t51 107l35 165q-20 -15 -41 -26l-64 -21q-85 -28 -120 -68.5t-35 -109.5z" />
<glyph unicode="b" horiz-adv-x="911" d="M-25 0l291 1366h291l-90 -424q51 59 99.5 84t109.5 25q103 0 159 -63.5t56 -180.5q0 -100 -34.5 -274t-82.5 -316q-82 -248 -276 -248q-82 0 -133 37t-82 119l-27 -125h-281zM344 307q0 -43 19.5 -67.5t54.5 -24.5q37 0 63 38t49 126q27 104 48.5 217t21.5 152 q0 41 -19 65.5t-51 24.5q-41 0 -69.5 -41t-50.5 -131q-66 -287 -66 -359z" />
<glyph unicode="c" horiz-adv-x="874" d="M27 260q0 89 31 249t71 279q46 139 135 201t244 62q175 0 256 -66q96 -81 96 -227q0 -36 -10 -121h-279q17 95 17 129q0 36 -21 57t-57 21q-51 0 -75 -36t-50 -151q-76 -347 -76 -405q0 -33 23 -54.5t57 -21.5q52 0 80 48t53 179h279q-13 -103 -41 -175t-78 -134 q-54 -66 -125.5 -95.5t-177.5 -29.5q-173 0 -262.5 74t-89.5 217z" />
<glyph unicode="d" horiz-adv-x="917" d="M18 219q0 97 39.5 290.5t81.5 307.5q43 112 114 173t159 61q146 0 209 -156l100 471h293l-291 -1366h-268l20 90q-57 -65 -112 -93t-125 -28q-108 0 -164 63t-56 187zM307 264q0 -94 76 -94q37 0 61.5 31.5t44.5 105.5q20 72 49 224t29 182q0 43 -19 67.5t-54 24.5 t-58.5 -31.5t-48.5 -109.5q-34 -114 -57 -228t-23 -172z" />
<glyph unicode="e" horiz-adv-x="880" d="M27 252q0 101 35.5 279.5t76.5 287.5q47 122 135 177t234 55q180 0 266 -75t86 -231q0 -90 -41 -276h-487q-39 -142 -39 -207q0 -43 24.5 -66.5t69.5 -23.5q50 0 80 42.5t47 137.5h281q-27 -105 -51.5 -163t-61.5 -103q-53 -63 -122 -90t-181 -27q-170 0 -261 73t-91 210 zM375 645h209q12 91 12 125q0 44 -21 68t-59 24q-76 0 -104 -74q-11 -32 -37 -143z" />
<glyph unicode="f" horiz-adv-x="581" d="M18 0l177 823h-107l43 197h105l16 76q37 172 110.5 236.5t233.5 64.5q45 0 129 -8l-43 -203h-49q-39 0 -58.5 -22t-31.5 -79l-15 -65h125l-41 -197h-127l-174 -823h-293z" />
<glyph unicode="g" horiz-adv-x="913" d="M-57 -68h274q0 -59 20 -85.5t64 -26.5q68 0 98 80q20 60 33 127l25 110q-61 -62 -105.5 -86t-99.5 -24q-101 0 -160 74t-59 200q0 88 25.5 219.5t66.5 257.5q43 135 116 204t173 69q85 0 135 -37t78 -119l26 125h283l-209 -987q-47 -223 -137.5 -309t-276.5 -86 q-237 0 -321 112q-27 34 -37 73.5t-12 108.5zM319 330q0 -92 72 -92q81 0 123 172q53 210 53 307q0 40 -19.5 63t-53.5 23q-37 0 -63 -36.5t-48 -119.5q-64 -240 -64 -317z" />
<glyph unicode="h" horiz-adv-x="919" d="M-25 0l291 1366h291l-88 -410q61 52 109 73.5t104 21.5q94 0 151.5 -58t57.5 -153q0 -53 -19 -146l-147 -694h-293l143 674q17 84 17 102q0 28 -17 45t-43 17q-41 0 -73 -43t-49 -121l-144 -674h-291z" />
<glyph unicode="i" horiz-adv-x="462" d="M-25 0l218 1020h292l-217 -1020h-293zM219 1151l53 244h293l-53 -244h-293z" />
<glyph unicode="j" horiz-adv-x="462" d="M-174 -334l41 195h12q40 0 59.5 27.5t36.5 105.5l218 1026h292l-223 -1051q-38 -173 -84 -227q-73 -88 -227 -88q-37 0 -125 12zM221 1151l51 244h293l-51 -244h-293z" />
<glyph unicode="k" horiz-adv-x="917" d="M-25 0l291 1366h293l-156 -731l302 385h319l-391 -436l151 -584h-297l-79 410l-70 -86l-70 -324h-293z" />
<glyph unicode="l" horiz-adv-x="460" d="M-25 0l291 1366h289l-291 -1366h-289z" />
<glyph unicode="m" horiz-adv-x="1329" d="M-25 0l218 1020h249l-22 -105q110 136 250 136q68 0 106.5 -26.5t73.5 -98.5q62 66 119.5 95.5t124.5 29.5q100 0 154.5 -55t54.5 -156q0 -43 -25 -162l-145 -678h-279l150 698q12 61 12 68q0 32 -16 50t-44 18q-40 0 -72.5 -49t-52.5 -140l-137 -645h-276l147 692 q13 58 13 82q0 26 -16.5 44t-41.5 18q-86 0 -127 -183l-139 -653h-279z" />
<glyph unicode="n" horiz-adv-x="921" d="M-25 0l218 1020h268l-23 -100q108 131 246 131q95 0 152 -57t57 -152q0 -71 -12 -125l-154 -717h-293l148 690q12 54 12 86q0 28 -16.5 45t-42.5 17q-86 0 -129 -195l-138 -643h-293z" />
<glyph unicode="o" horiz-adv-x="892" d="M29 272q0 93 35 265.5t75 273.5q51 128 137 184t232 56q181 0 269.5 -74t88.5 -225q0 -89 -33.5 -251.5t-74.5 -275.5q-51 -140 -136 -198t-239 -58q-354 0 -354 303zM307 270q0 -94 84 -94q41 0 64 33t45 123q84 366 84 428q0 84 -78 84q-43 0 -68 -31.5t-45 -114.5 q-25 -100 -55.5 -252.5t-30.5 -175.5z" />
<glyph unicode="p" horiz-adv-x="915" d="M-96 -342l289 1362h262l-17 -82q61 61 116 87t124 26q103 0 161 -62t58 -172q0 -92 -29.5 -252.5t-72.5 -298.5q-47 -155 -117 -226t-176 -71q-77 0 -126 41.5t-77 130.5l-102 -483h-293zM346 313q0 -43 19 -67.5t53 -24.5q42 0 64.5 31t47.5 123q29 109 51.5 224 t22.5 161q0 41 -18.5 63.5t-50.5 22.5q-44 0 -71 -37t-50 -131q-23 -88 -45.5 -211.5t-22.5 -153.5z" />
<glyph unicode="q" horiz-adv-x="911" d="M18 211q0 92 36 275t77 302q47 135 116 199t167 64q84 0 134 -40.5t79 -117.5l26 127h281l-289 -1362h-291l90 430q-52 -65 -98 -92t-108 -27q-103 0 -161.5 64t-58.5 178zM309 287q0 -99 74 -99q41 0 66 36t51 134q22 87 42.5 204.5t20.5 158.5q0 38 -18.5 60t-50.5 22 q-38 0 -64 -34t-49 -114q-20 -70 -46 -203t-26 -165z" />
<glyph unicode="r" horiz-adv-x="618" d="M-25 0l218 1020h264l-37 -170q47 111 111 157.5t165 43.5l-57 -320h-49q-95 0 -138 -37.5t-65 -138.5l-119 -555h-293z" />
<glyph unicode="s" horiz-adv-x="819" d="M-6 252q0 33 8 96h260q-10 -51 -10 -84q0 -47 28 -75.5t74 -28.5q41 0 70 27t29 67q0 35 -29 68.5t-135 119.5q-113 92 -150 152t-37 149q0 146 94 227t263 81t260.5 -67t91.5 -191q0 -11 -6 -97h-258q10 46 10 80q0 43 -25.5 68.5t-66.5 25.5t-68.5 -25t-27.5 -63 q0 -34 27.5 -64.5t129.5 -109.5q111 -87 154 -155t43 -160q0 -158 -101 -241t-294 -83q-165 0 -249.5 71.5t-84.5 211.5z" />
<glyph unicode="t" horiz-adv-x="604" d="M55 164q0 25 15 102l118 557h-106l41 197h106l64 297h293l-64 -297h133l-43 -197h-131l-100 -467q-16 -76 -16 -106q0 -25 15.5 -39t41.5 -14q17 0 67 4l-45 -209q-84 -8 -139 -8q-136 0 -192 47q-58 51 -58 133z" />
<glyph unicode="u" horiz-adv-x="923" d="M25 178q0 50 20 152l148 690h292l-143 -676q-16 -82 -16 -96q0 -28 17.5 -47t43.5 -19q85 0 129 201l137 637h291l-217 -1020h-268l22 98q-108 -129 -250 -129q-89 0 -147.5 59t-58.5 150z" />
<glyph unicode="v" horiz-adv-x="776" d="M100 1020h277l-17 -651l224 651h297l-424 -1020h-330z" />
<glyph unicode="w" horiz-adv-x="1191" d="M100 1020h275l-23 -635l211 635h240l6 -635l186 635h287l-377 -1020h-305l2 510l-170 -510h-303z" />
<glyph unicode="x" horiz-adv-x="751" d="M-129 0l338 543l-131 477h264l41 -258l137 258h318l-344 -506l151 -514h-270l-51 283l-142 -283h-311z" />
<glyph unicode="y" horiz-adv-x="778" d="M-76 -330l43 203q41 -10 70 -10q48 0 70 28t22 89v28l-29 1012h279l-23 -637l228 637h299l-467 -1133q-57 -138 -121.5 -185.5t-192.5 -47.5q-53 0 -178 16z" />
<glyph unicode="z" horiz-adv-x="737" d="M-70 0l47 219l424 582h-313l47 219h641l-47 -219l-418 -582h332l-47 -219h-666z" />
<glyph unicode="{" horiz-adv-x="704" d="M72 485l39 179q70 12 105 50t54 120l45 204q23 108 58 169.5t96 99.5q55 35 117 47t178 12h45l-43 -192h-35q-109 0 -139 -52q-15 -24 -35 -123l-35 -159q-27 -126 -67 -179.5t-129 -89.5q51 -34 72.5 -67.5t21.5 -79.5q0 -60 -14 -121l-33 -160q-21 -105 -21 -110 q0 -33 27 -46.5t92 -13.5q21 0 39 2l-43 -194h-66q-155 0 -229 50.5t-74 156.5q0 51 17 125l45 204q8 40 8 76q0 40 -22 61t-74 31z" />
<glyph unicode="|" horiz-adv-x="1024" d="M354 -342v1708h316v-1708h-316z" />
<glyph unicode="}" horiz-adv-x="704" d="M-92 -219l41 194q23 -2 37 -2q105 0 139 52q18 36 35 122l35 160q28 126 67 179t129 89q-52 35 -74 69t-22 79q0 51 14 123l35 158q21 94 21 110q0 33 -27 46.5t-92 13.5h-39l41 192h67q155 0 229 -50.5t74 -154.5q0 -41 -18 -127l-43 -205q-10 -45 -10 -75 q0 -40 22 -60.5t76 -29.5l-39 -181q-71 -10 -106 -48t-54 -122l-45 -204q-23 -108 -57.5 -167.5t-97.5 -99.5q-55 -34 -118.5 -47.5t-176.5 -13.5h-43z" />
<glyph unicode="~" horiz-adv-x="1366" d="M354 1255q60 145 133.5 213t171.5 68q47 0 97 -16.5t192 -79.5q58 -25 101 -25q42 0 74.5 28.5t68.5 98.5l154 -127q-27 -62 -52.5 -107t-62.5 -88.5t-85.5 -66.5t-107.5 -23q-37 0 -73 12t-201 81q-77 30 -115 30q-41 0 -71.5 -26.5t-71.5 -98.5z" />
<glyph unicode="&#xa1;" horiz-adv-x="552" d="M-43 -221l88 416l184 514h164l-26 -547l-82 -383h-328zM188 836l66 307h315l-65 -307h-316z" />
<glyph unicode="&#xa2;" d="M106 436q0 126 44.5 317t97.5 291q50 93 124.5 134.5t198.5 42.5l29 139h109l-31 -143q83 -15 128.5 -38.5t76.5 -66.5q25 -32 41 -86t16 -102q0 -38 -14 -117h-277q17 78 17 117q0 88 -76 88q-46 0 -71 -34.5t-48 -129.5q-26 -107 -54 -246.5t-28 -167.5q0 -40 21.5 -63 t58.5 -23q51 0 79 48.5t54 183.5h283q-23 -120 -53.5 -197t-79.5 -131q-55 -61 -109 -81t-194 -32l-33 -157h-109l35 163q-126 37 -181 104t-55 187z" />
<glyph unicode="&#xa3;" d="M4 168q103 37 165 157.5t62 282.5h-149l22 107h105q-41 125 -41 248q0 186 128 303.5t329 117.5q85 0 160.5 -21t119.5 -56q49 -38 78 -100.5t29 -129.5q0 -8 -2.5 -35t-3.5 -41q0 -3 -1 -10t-2 -17t-2 -18h-276q2 33 2 64q0 131 -111 131q-69 0 -109 -59t-40 -160 q0 -67 27 -217h256l-23 -107h-225q4 -50 4 -53q0 -57 -24 -119t-64 -108q-42 -50 -137 -121q80 31 159 31q22 0 97.5 -13.5t99.5 -13.5q112 0 197 49l28 -231q-83 -35 -132 -47.5t-103 -12.5q-72 0 -172 33q-104 35 -164 35q-52 0 -100 -16t-119 -56z" />
<glyph unicode="&#xa4;" horiz-adv-x="1228" d="M90 1108l115 115l186 -187q128 84 260 84q129 0 256 -82l187 183l112 -113l-184 -184q47 -71 67.5 -130t20.5 -128q0 -129 -84 -254l186 -187l-114 -114l-185 186q-128 -86 -262 -86q-126 0 -260 84l-186 -182l-113 112l184 185q-83 121 -83 256q0 132 86 256zM397 666 q0 -104 75 -179t179 -75t179 75t75 179t-74 179t-176 75q-108 0 -183 -74t-75 -180z" />
<glyph unicode="&#xa5;" d="M119 530l22 107h246l-37 139h-180l25 107h129l-125 483h276l76 -616l262 616h303l-272 -483h133l-25 -107h-170l-77 -139h219l-23 -107h-229l-113 -530h-307l113 530h-246z" />
<glyph unicode="&#xa6;" horiz-adv-x="1024" d="M354 313h316v-655h-316v655zM354 643v723h316v-723h-316z" />
<glyph unicode="&#xa7;" d="M61 76v30h238q-2 -12 -2 -32q0 -57 25 -89t69 -32q38 0 67 26t29 60q0 40 -23.5 79.5t-90.5 114.5q-148 163 -201 249t-53 163q0 54 24.5 109t65.5 96q32 32 63 47.5t82 24.5q-84 84 -84 192q0 126 91.5 203.5t242.5 77.5q102 0 177 -34.5t110 -98.5q20 -35 26.5 -73.5 t6.5 -123.5h-240q2 6 2 14q0 123 -84 123q-40 0 -67 -23t-27 -57q0 -38 21 -73t92 -113q165 -182 214.5 -261t49.5 -161q0 -58 -28 -115.5t-75 -97.5q-45 -40 -125 -51q41 -52 58.5 -96t17.5 -97q0 -131 -95 -215t-243 -84q-156 0 -245 82t-89 236zM356 694q0 -25 12.5 -49 t45.5 -63l153 -183q78 21 78 80q0 28 -10.5 48t-50.5 67l-152 182q-76 -34 -76 -82z" />
<glyph unicode="&#xa8;" horiz-adv-x="1024" d="M334 1147l49 227h225l-49 -227h-225zM680 1147l49 227h225l-49 -227h-225z" />
<glyph unicode="&#xa9;" horiz-adv-x="1366" d="M78 643q0 151 54.5 289.5t146.5 239t218.5 160t264.5 59.5q162 0 299 -89t216 -242.5t79 -336.5q0 -119 -34.5 -232.5t-98 -205.5t-146.5 -162.5t-185.5 -109t-209.5 -38.5q-166 0 -305 88t-219 241.5t-80 338.5zM215 647q0 -152 62 -278.5t170.5 -199.5t238.5 -73 q142 0 265 84.5t195.5 228.5t72.5 310q0 230 -135 390.5t-328 160.5q-109 0 -209 -49.5t-172.5 -133t-116 -199t-43.5 -241.5zM434 485q0 63 23.5 179.5t58.5 230.5q32 106 93.5 154.5t164.5 48.5q225 0 225 -205q0 -15 -2 -32t-5 -39.5l-5 -37.5h-192q20 82 20 107 q0 51 -45 51q-51 0 -74 -102q-71 -308 -71 -357q0 -23 12 -36t33 -13q32 0 48 31t38 133h190q-40 -185 -100 -251t-187 -66q-111 0 -168 51.5t-57 152.5z" />
<glyph unicode="&#xaa;" horiz-adv-x="663" d="M96 694q0 64 28 113.5t77 71.5q8 3 198 55q46 12 64 28t18 46q0 19 -14 30t-39 11q-31 0 -50 -20t-24 -56v-12h-196q12 58 21 83t26 48q66 88 231 88q244 0 244 -170q0 -22 -10 -74l-58 -248q-16 -69 -16 -102q0 -8 8 -39h-205l7 31q-71 -50 -144 -50q-76 0 -121 45 t-45 121zM297 711q0 -20 12.5 -31.5t34.5 -11.5q29 0 51 21t31 59l18 77l-18 -8q-3 0 -35 -10q-53 -17 -73.5 -38t-20.5 -58z" />
<glyph unicode="&#xab;" horiz-adv-x="905" d="M25 412l45 213l395 235l-55 -262l-207 -102l170 -125l-51 -219zM453 412l45 213l395 235l-55 -262l-207 -102l170 -125l-51 -219z" />
<glyph unicode="&#xac;" horiz-adv-x="1024" d="M27 322v274h886v-596h-305v322h-581z" />
<glyph unicode="&#xad;" horiz-adv-x="382" d="M-29 377l56 260h381l-54 -260h-383z" />
<glyph unicode="&#xae;" horiz-adv-x="1366" d="M55 643q0 151 54.5 289.5t146.5 239t218.5 160t264.5 59.5q162 0 299 -89t216 -242.5t79 -336.5q0 -119 -34.5 -232.5t-98 -205.5t-146.5 -162.5t-185.5 -109t-209.5 -38.5q-166 0 -305 88t-219 241.5t-80 338.5zM193 647q0 -152 62 -278.5t170.5 -199.5t238.5 -73 q106 0 204.5 50t170 134t114.5 199.5t43 239.5q0 230 -135 390.5t-328 160.5q-145 0 -269.5 -84t-197.5 -227.5t-73 -311.5zM385 301l166 778h213q123 0 181.5 -46t58.5 -144q0 -160 -123 -217q55 -28 55 -84q0 -34 -25 -178q-4 -20 -4 -37q0 -27 23 -72h-211q-8 31 -8 45 q0 30 26 184q4 32 4 37q0 28 -18.5 37.5t-71.5 11.5l-67 -315h-199zM682 764h23q55 0 79.5 25.5t24.5 82.5q0 34 -19 47t-71 13z" />
<glyph unicode="&#xaf;" horiz-adv-x="1024" d="M367 1178l30 147h547l-33 -147h-544z" />
<glyph unicode="&#xb0;" horiz-adv-x="837" d="M233 1067q0 123 91 211t219 88q127 0 217 -88t90 -213q0 -126 -90.5 -215.5t-216.5 -89.5q-129 0 -219.5 89.5t-90.5 217.5zM387 1065q0 -64 45.5 -109t110.5 -45q63 0 108 45t45 107q0 63 -45 107t-110 44q-63 0 -108.5 -44t-45.5 -105z" />
<glyph unicode="&#xb1;" horiz-adv-x="974" d="M43 84l39 184h690l-39 -184h-690zM174 700l39 185h244l57 276h203l-60 -276h244l-39 -185h-244l-61 -290h-203l62 290h-242z" />
<glyph unicode="&#xb2;" horiz-adv-x="659" d="M70 547q7 96 37.5 162.5t100 134.5t208.5 170q55 40 77.5 72.5t22.5 72.5q0 26 -15 43t-40 17q-39 0 -57 -32.5t-19 -107.5h-203q12 153 79 222t202 69q126 0 196 -56t70 -157q0 -107 -72 -182q-56 -56 -184 -146q-110 -78 -147 -120h317l-37 -162h-536z" />
<glyph unicode="&#xb3;" horiz-adv-x="659" d="M113 745q0 21 4 76h200q-8 -72 -8 -86q0 -28 14 -43.5t39 -15.5q37 0 59.5 38.5t22.5 104.5q0 80 -96 80h-29q-4 0 -8 2l35 148q16 -2 41 -2q133 0 133 118q0 58 -49 58q-31 0 -47.5 -23t-24.5 -74h-198q15 129 80 186.5t196 57.5q120 0 184 -53.5t64 -151.5 q0 -83 -41.5 -138t-120.5 -77q90 -46 90 -155q0 -64 -25.5 -121t-70.5 -92q-66 -54 -192 -54q-120 0 -186 57t-66 160z" />
<glyph unicode="&#xb4;" horiz-adv-x="1024" d="M449 1126l169 269h271l-281 -269h-159z" />
<glyph unicode="&#xb5;" horiz-adv-x="974" d="M-70 -342l289 1362h295l-143 -676q-17 -85 -17 -96q0 -28 18 -47t44 -19q85 0 129 201l135 637h293l-217 -1020h-269l21 98q-49 -60 -84 -76t-129 -24l-72 -340h-293z" />
<glyph unicode="&#xb6;" d="M150 913q0 120 52 227t140 165q94 61 223 61h490l-336 -1585h-207l313 1476h-104l-313 -1476h-207l180 842q-231 43 -231 290z" />
<glyph unicode="&#xb7;" horiz-adv-x="518" d="M45 328l72 338h346l-70 -338h-348z" />
<glyph unicode="&#xb8;" horiz-adv-x="1024" d="M111 -348l45 76q94 -43 153 -43q40 0 65 19t25 48q0 26 -17.5 44t-45.5 18q-19 0 -70 -15l-35 47l99 154h98l-78 -125q44 10 76 10q63 0 102 -34.5t39 -90.5q0 -72 -63 -114.5t-170 -42.5q-106 0 -223 49z" />
<glyph unicode="&#xb9;" horiz-adv-x="659" d="M215 1094l31 131q112 4 176 37t96 104h154l-193 -819h-215l129 555q-70 -10 -178 -8z" />
<glyph unicode="&#xba;" horiz-adv-x="641" d="M113 713q0 56 22.5 159t48.5 162q32 76 90.5 111t153.5 35q238 0 238 -187q0 -52 -22 -148t-48 -163q-34 -84 -91 -120t-157 -36q-235 0 -235 187zM307 711q-1 -22 11.5 -34.5t35.5 -12.5t36.5 18.5t25.5 67.5q53 205 53 251q0 41 -43 41q-23 0 -37.5 -17.5t-26.5 -61.5 q-16 -60 -35.5 -149t-19.5 -103z" />
<glyph unicode="&#xbb;" horiz-adv-x="911" d="M4 156l53 247l205 111l-160 127l43 209l295 -250l-45 -213zM444 152l56 262l207 102l-170 125l47 219l301 -258l-45 -213z" />
<glyph unicode="&#xbc;" horiz-adv-x="1558" d="M215 1094l31 131q112 4 176 37t96 104h154l-193 -819h-215l129 555q-70 -10 -178 -8zM395 -14l690 1368h148l-688 -1368h-150zM864 152l31 163l410 504h215l-123 -522h80l-33 -145h-80l-37 -154h-205l35 154h-293zM1067 297h125l61 231z" />
<glyph unicode="&#xbd;" horiz-adv-x="1558" d="M215 1094l31 131q112 4 176 37t96 104h154l-193 -819h-215l129 555q-70 -10 -178 -8zM395 -14l690 1368h148l-688 -1368h-150zM854 0q7 96 37.5 162.5t100 134.5t208.5 170q55 40 77.5 72.5t22.5 72.5q0 26 -15 43t-40 17q-39 0 -57 -32.5t-19 -107.5h-202 q12 153 78.5 222t201.5 69q126 0 196 -56t70 -157q0 -108 -71 -182q-48 -48 -185 -145q-106 -75 -147 -121h320l-39 -162h-537z" />
<glyph unicode="&#xbe;" horiz-adv-x="1558" d="M113 745q0 21 4 76h200q-8 -72 -8 -86q0 -28 14 -43.5t39 -15.5q37 0 59.5 38.5t22.5 104.5q0 80 -96 80h-29q-4 0 -8 2l35 148q16 -2 41 -2q133 0 133 118q0 58 -49 58q-31 0 -47.5 -23t-24.5 -74h-198q15 129 80 186.5t196 57.5q120 0 184 -53.5t64 -151.5 q0 -83 -41.5 -138t-120.5 -77q90 -46 90 -155q0 -64 -25.5 -121t-70.5 -92q-66 -54 -192 -54q-120 0 -186 57t-66 160zM393 -14l692 1368h146l-688 -1368h-150zM862 152l31 163l410 504h215l-123 -522h82l-35 -145h-80l-37 -154h-205l35 154h-293zM1065 297h125l61 231z" />
<glyph unicode="&#xbf;" horiz-adv-x="870" d="M-55 92q0 132 82 246q33 48 151 149q87 73 120 115.5t58 110.5h277q-22 -128 -66 -195.5t-186 -191.5q-60 -54 -93.5 -115.5t-33.5 -118.5q0 -52 26.5 -83.5t69.5 -31.5q61 0 92 60q17 36 27 127h287q-14 -204 -120 -310t-298 -106q-175 0 -284 95t-109 249zM360 836 l66 307h315l-65 -307h-316z" />
<glyph unicode="&#xc0;" horiz-adv-x="993" d="M-104 0l581 1366h389l13 -1366h-316l15 264h-254l-93 -264h-335zM401 498h191l39 612zM426 1737h246l110 -242h-161z" />
<glyph unicode="&#xc1;" horiz-adv-x="995" d="M-104 0l581 1366h389l13 -1366h-316l15 264h-254l-93 -264h-335zM401 498h191l39 612zM623 1495l163 242h275l-281 -242h-157z" />
<glyph unicode="&#xc2;" horiz-adv-x="993" d="M-104 0l581 1366h389l13 -1366h-316l15 264h-254l-93 -264h-335zM401 498h191l39 612zM406 1495l235 244h215l125 -244h-174l-78 147l-127 -147h-196z" />
<glyph unicode="&#xc3;" horiz-adv-x="993" d="M-104 0l581 1366h389l13 -1366h-316l15 264h-254l-93 -264h-335zM401 498h191l39 612zM436 1511q25 107 68.5 158t111.5 51q46 0 123 -30q91 -33 115 -33q60 0 78 72h110q-22 -106 -72 -162t-122 -56q-24 0 -43.5 5.5t-75.5 29.5q-73 33 -115 33q-54 0 -69 -68h-109z" />
<glyph unicode="&#xc4;" horiz-adv-x="993" d="M-104 0l581 1366h389l13 -1366h-316l15 264h-254l-93 -264h-335zM401 498h191l39 612zM438 1507l45 215h226l-47 -215h-224zM756 1507l45 215h225l-47 -215h-223z" />
<glyph unicode="&#xc5;" horiz-adv-x="995" d="M-104 0l581 1366h389l13 -1366h-316l15 264h-254l-93 -264h-335zM401 498h191l39 612zM520 1653q0 83 59 140.5t144 57.5q80 0 138.5 -58.5t58.5 -139.5q0 -82 -58.5 -140.5t-140.5 -58.5q-83 0 -142 58.5t-59 140.5zM629 1653q0 -37 27 -63.5t65 -26.5q37 0 63.5 26.5 t26.5 63.5t-26.5 63.5t-63.5 26.5q-38 0 -65 -26.5t-27 -63.5z" />
<glyph unicode="&#xc6;" horiz-adv-x="1470" d="M-123 -8l741 1374h945l-60 -272h-395l-55 -260h385l-58 -267h-385l-65 -309h422l-58 -266h-745l57 266h-268l-115 -266h-346zM446 492h209l127 602h-67z" />
<glyph unicode="&#xc7;" horiz-adv-x="1005" d="M57 317q0 115 40.5 322t103.5 410q57 185 163.5 268.5t284.5 83.5q387 0 387 -352q0 -79 -20 -181h-311q30 120 30 176q0 52 -24 79.5t-68 27.5q-54 0 -89 -46.5t-58 -150.5q-127 -554 -127 -643q0 -44 26.5 -72t67.5 -28q77 0 119 108q23 63 45 185h313 q-60 -295 -167 -415.5t-312 -123.5l-105 -108q60 14 90 14q69 0 113.5 -36t44.5 -93q0 -66 -60 -108t-155 -42q-61 0 -114 9.5t-140 36.5l41 63q111 -31 166 -31q41 0 68.5 20.5t27.5 51.5q0 26 -28.5 44.5t-69.5 18.5q-23 0 -59 -10l-35 47l121 127q-157 20 -233.5 105 t-76.5 243z" />
<glyph unicode="&#xc8;" horiz-adv-x="921" d="M-8 0l291 1366h731l-58 -268h-407l-53 -258h395l-57 -267h-396l-65 -307h432l-57 -266h-756zM416 1737h246l110 -242h-162z" />
<glyph unicode="&#xc9;" horiz-adv-x="921" d="M-8 0l291 1366h731l-58 -268h-407l-53 -258h395l-57 -267h-396l-65 -307h432l-57 -266h-756zM573 1495l164 242h275l-281 -242h-158z" />
<glyph unicode="&#xca;" horiz-adv-x="921" d="M-8 0l291 1366h731l-58 -268h-407l-53 -258h395l-57 -267h-396l-65 -307h432l-57 -266h-756zM397 1495l236 244h215l125 -244h-174l-78 147l-127 -147h-197z" />
<glyph unicode="&#xcb;" horiz-adv-x="921" d="M-8 0l291 1366h731l-58 -268h-407l-53 -258h395l-57 -267h-396l-65 -307h432l-57 -266h-756zM410 1507l45 215h225l-47 -215h-223zM727 1507l45 215h225l-47 -215h-223z" />
<glyph unicode="&#xcc;" horiz-adv-x="528" d="M-8 0l291 1366h323l-291 -1366h-323zM205 1737h246l110 -242h-162z" />
<glyph unicode="&#xcd;" horiz-adv-x="528" d="M-8 0l291 1366h323l-291 -1366h-323zM397 1495l164 242h275l-281 -242h-158z" />
<glyph unicode="&#xce;" horiz-adv-x="528" d="M-8 0l291 1366h323l-291 -1366h-323zM180 1495l236 244h215l125 -244h-174l-78 147l-127 -147h-197z" />
<glyph unicode="&#xcf;" horiz-adv-x="528" d="M-8 0l291 1366h323l-291 -1366h-323zM219 1507l43 205h213l-43 -205h-213zM522 1507l41 205h215l-45 -205h-211z" />
<glyph unicode="&#xd0;" horiz-adv-x="1040" d="M-8 0l133 627h-86l33 155h82l122 584h297q128 0 196.5 -11t123.5 -40q72 -38 111.5 -115.5t39.5 -179.5q0 -130 -65 -455q-47 -241 -113 -362.5t-174 -169.5q-51 -22 -105.5 -27.5t-260.5 -5.5h-334zM362 242h44q95 0 135.5 35.5t72.5 146.5q39 137 74 316t35 243 q0 69 -29.5 101t-95.5 32q-11 0 -51 -4l-70 -330h148l-33 -155h-148z" />
<glyph unicode="&#xd1;" horiz-adv-x="1073" d="M-8 0l295 1366h336l67 -733l156 733h305l-291 -1366h-332l-69 731l-156 -731h-311zM489 1511q25 107 69 158t112 51q46 0 123 -30q91 -33 114 -33q60 0 78 72h111q-22 -105 -72.5 -161.5t-122.5 -56.5q-24 0 -43.5 5.5t-75.5 29.5q-73 33 -114 33q-55 0 -70 -68h-109z " />
<glyph unicode="&#xd2;" horiz-adv-x="1028" d="M57 322q0 119 50.5 366t105.5 397q61 169 162.5 242.5t271.5 73.5q195 0 295 -89.5t100 -262.5q0 -175 -90 -535q-40 -165 -81.5 -267t-100.5 -167t-133.5 -90t-185.5 -25q-179 0 -283 82q-60 47 -85.5 110.5t-25.5 164.5zM367 317q0 -49 25 -76.5t69 -27.5q49 0 81.5 39 t55.5 125q34 130 84.5 385.5t50.5 294.5q0 43 -27 69.5t-71 26.5q-53 0 -80.5 -38t-56.5 -150q-34 -132 -82.5 -372.5t-48.5 -275.5zM442 1737h246l111 -242h-162z" />
<glyph unicode="&#xd3;" horiz-adv-x="1028" d="M57 322q0 119 50.5 366t105.5 397q61 169 162.5 242.5t271.5 73.5q195 0 295 -89.5t100 -262.5q0 -175 -90 -535q-40 -165 -81.5 -267t-100.5 -167t-133.5 -90t-185.5 -25q-179 0 -283 82q-60 47 -85.5 110.5t-25.5 164.5zM367 317q0 -49 25 -76.5t69 -27.5q49 0 81.5 39 t55.5 125q34 130 84.5 385.5t50.5 294.5q0 43 -27 69.5t-71 26.5q-53 0 -80.5 -38t-56.5 -150q-34 -132 -82.5 -372.5t-48.5 -275.5zM598 1495l164 242h274l-280 -242h-158z" />
<glyph unicode="&#xd4;" horiz-adv-x="1028" d="M57 322q0 119 50.5 366t105.5 397q61 169 162.5 242.5t271.5 73.5q195 0 295 -89.5t100 -262.5q0 -175 -90 -535q-40 -165 -81.5 -267t-100.5 -167t-133.5 -90t-185.5 -25q-179 0 -283 82q-60 47 -85.5 110.5t-25.5 164.5zM367 317q0 -49 25 -76.5t69 -27.5q49 0 81.5 39 t55.5 125q34 130 84.5 385.5t50.5 294.5q0 43 -27 69.5t-71 26.5q-53 0 -80.5 -38t-56.5 -150q-34 -132 -82.5 -372.5t-48.5 -275.5zM430 1495l236 244h215l125 -244h-175l-77 147l-127 -147h-197z" />
<glyph unicode="&#xd5;" horiz-adv-x="1028" d="M57 322q0 119 50.5 366t105.5 397q61 169 162.5 242.5t271.5 73.5q195 0 295 -89.5t100 -262.5q0 -175 -90 -535q-40 -165 -81.5 -267t-100.5 -167t-133.5 -90t-185.5 -25q-179 0 -283 82q-60 47 -85.5 110.5t-25.5 164.5zM367 317q0 -49 25 -76.5t69 -27.5q49 0 81.5 39 t55.5 125q34 130 84.5 385.5t50.5 294.5q0 43 -27 69.5t-71 26.5q-53 0 -80.5 -38t-56.5 -150q-34 -132 -82.5 -372.5t-48.5 -275.5zM467 1511q25 107 68.5 158t111.5 51q46 0 123 -30q91 -33 115 -33q60 0 78 72h110q-22 -106 -72 -162t-122 -56q-24 0 -43.5 5.5 t-75.5 29.5q-73 33 -115 33q-55 0 -70 -68h-108z" />
<glyph unicode="&#xd6;" horiz-adv-x="1028" d="M57 322q0 119 50.5 366t105.5 397q61 169 162.5 242.5t271.5 73.5q195 0 295 -89.5t100 -262.5q0 -175 -90 -535q-40 -165 -81.5 -267t-100.5 -167t-133.5 -90t-185.5 -25q-179 0 -283 82q-60 47 -85.5 110.5t-25.5 164.5zM367 317q0 -49 25 -76.5t69 -27.5q49 0 81.5 39 t55.5 125q34 130 84.5 385.5t50.5 294.5q0 43 -27 69.5t-71 26.5q-53 0 -80.5 -38t-56.5 -150q-34 -132 -82.5 -372.5t-48.5 -275.5zM463 1507l45 215h225l-47 -215h-223zM780 1507l45 215h226l-47 -215h-224z" />
<glyph unicode="&#xd7;" horiz-adv-x="974" d="M27 461l354 278l-209 267l156 122l209 -266l354 279l123 -158l-352 -276l210 -271l-155 -125l-213 271l-354 -277z" />
<glyph unicode="&#xd8;" horiz-adv-x="1032" d="M-53 4l131 170q-21 74 -21 125q0 169 61.5 447t129.5 415q63 128 156.5 184t242.5 56q98 0 167 -21t126 -67l94 133l111 -86l-123 -168q25 -68 25 -127q0 -184 -60.5 -453.5t-134.5 -416.5q-65 -125 -156 -177.5t-243 -52.5q-95 0 -159.5 18.5t-133.5 65.5l-97 -129z M367 311q0 -46 26.5 -76t67.5 -30q51 0 83 37t58 125q31 112 96 432l-329 -449q-2 -14 -2 -39zM412 580l327 432q2 10 2 26q0 55 -27 87t-73 32q-47 0 -78.5 -37t-56.5 -123q-28 -99 -94 -417z" />
<glyph unicode="&#xd9;" horiz-adv-x="1044" d="M63 299q0 92 25 209l182 858h326l-193 -909q-24 -122 -24 -156q0 -41 25.5 -65.5t68.5 -24.5q56 0 84 49q19 35 34 85.5t42 178.5l178 842h324l-201 -946q-15 -67 -28.5 -116t-33.5 -99t-43.5 -84.5t-57 -66t-75 -50t-96 -29t-121.5 -10.5q-115 0 -206 30.5t-142 86.5 q-68 74 -68 217zM451 1737h245l111 -242h-162z" />
<glyph unicode="&#xda;" horiz-adv-x="1044" d="M63 299q0 92 25 209l182 858h326l-193 -909q-24 -122 -24 -156q0 -41 25.5 -65.5t68.5 -24.5q56 0 84 49q19 35 34 85.5t42 178.5l178 842h324l-201 -946q-15 -67 -28.5 -116t-33.5 -99t-43.5 -84.5t-57 -66t-75 -50t-96 -29t-121.5 -10.5q-115 0 -206 30.5t-142 86.5 q-68 74 -68 217zM641 1495l164 242h274l-280 -242h-158z" />
<glyph unicode="&#xdb;" horiz-adv-x="1044" d="M63 299q0 92 25 209l182 858h326l-193 -909q-24 -122 -24 -156q0 -41 25.5 -65.5t68.5 -24.5q56 0 84 49q19 35 34 85.5t42 178.5l178 842h324l-201 -946q-15 -67 -28.5 -116t-33.5 -99t-43.5 -84.5t-57 -66t-75 -50t-96 -29t-121.5 -10.5q-115 0 -206 30.5t-142 86.5 q-68 74 -68 217zM432 1495l236 244h215l125 -244h-174l-78 147l-127 -147h-197z" />
<glyph unicode="&#xdc;" horiz-adv-x="1044" d="M63 299q0 92 25 209l182 858h326l-193 -909q-24 -122 -24 -156q0 -41 25.5 -65.5t68.5 -24.5q56 0 84 49q19 35 34 85.5t42 178.5l178 842h324l-201 -946q-15 -67 -28.5 -116t-33.5 -99t-43.5 -84.5t-57 -66t-75 -50t-96 -29t-121.5 -10.5q-115 0 -206 30.5t-142 86.5 q-68 74 -68 217zM471 1507l45 215h225l-47 -215h-223zM788 1507l46 215h225l-47 -215h-224z" />
<glyph unicode="&#xdd;" horiz-adv-x="929" d="M152 1366h331l76 -412l197 412h362l-442 -756l-129 -610h-326l135 637zM563 1495l164 242h274l-280 -242h-158z" />
<glyph unicode="&#xde;" horiz-adv-x="997" d="M-8 0l291 1366h323l-41 -192h33q118 0 191 -17t124 -55q109 -83 109 -279q0 -136 -44 -240.5t-124 -158.5q-119 -80 -360 -80q-62 0 -105 2l-74 -346h-323zM440 586q25 -2 68 -2q97 0 143.5 56.5t46.5 172.5q0 72 -37.5 97.5t-144.5 25.5z" />
<glyph unicode="&#xdf;" horiz-adv-x="917" d="M-25 0l220 1030q34 163 98 242q104 125 295 125q161 0 255.5 -82.5t94.5 -222.5q0 -80 -22.5 -155.5t-57.5 -113.5q-26 -28 -53 -40.5t-74 -18.5q65 -35 91 -85t26 -140q0 -103 -32 -225.5t-79 -200.5q-80 -129 -227 -129q-77 0 -166 45l45 204q31 -20 57 -20q48 0 66 57 q20 59 44 179t24 165q0 46 -22 68t-71 23l37 174q24 -9 37 -9q27 0 44.5 14.5t31.5 47.5q12 31 23.5 88t11.5 86q0 41 -20.5 64.5t-57.5 23.5q-41 0 -63 -29t-37 -104l-226 -1061h-293z" />
<glyph unicode="&#xe0;" horiz-adv-x="929" d="M2 236q0 105 42 186.5t114 116.5q36 17 168 53q12 3 31.5 8.5t50.5 14.5t57 16q79 23 109 54t30 89q0 37 -26.5 59.5t-69.5 22.5q-55 0 -88 -38.5t-41 -112.5h-279q20 113 46 168.5t77 95.5q104 82 297 82q183 0 276 -70t93 -207q0 -31 -17 -121l-88 -424 q-26 -128 -26 -178q0 -18 8 -51h-289l17 76q-63 -57 -120.5 -82t-125.5 -25q-115 0 -180.5 71t-65.5 196zM291 264q0 -38 24 -62t62 -24q51 0 88 39t51 107l35 165q-20 -15 -41 -26l-64 -21q-85 -28 -120 -68.5t-35 -109.5zM313 1399h248l119 -275h-164z" />
<glyph unicode="&#xe1;" horiz-adv-x="929" d="M2 236q0 105 42 186.5t114 116.5q36 17 168 53q12 3 31.5 8.5t50.5 14.5t57 16q79 23 109 54t30 89q0 37 -26.5 59.5t-69.5 22.5q-55 0 -88 -38.5t-41 -112.5h-279q20 113 46 168.5t77 95.5q104 82 297 82q183 0 276 -70t93 -207q0 -31 -17 -121l-88 -424 q-26 -128 -26 -178q0 -18 8 -51h-289l17 76q-63 -57 -120.5 -82t-125.5 -25q-115 0 -180.5 71t-65.5 196zM291 264q0 -38 24 -62t62 -24q51 0 88 39t51 107l35 165q-20 -15 -41 -26l-64 -21q-85 -28 -120 -68.5t-35 -109.5zM461 1126l170 269h270l-280 -269h-160z" />
<glyph unicode="&#xe2;" horiz-adv-x="929" d="M2 236q0 105 42 186.5t114 116.5q36 17 168 53q12 3 31.5 8.5t50.5 14.5t57 16q79 23 109 54t30 89q0 37 -26.5 59.5t-69.5 22.5q-55 0 -88 -38.5t-41 -112.5h-279q20 113 46 168.5t77 95.5q104 82 297 82q183 0 276 -70t93 -207q0 -31 -17 -121l-88 -424 q-26 -128 -26 -178q0 -18 8 -51h-289l17 76q-63 -57 -120.5 -82t-125.5 -25q-115 0 -180.5 71t-65.5 196zM291 264q0 -38 24 -62t62 -24q51 0 88 39t51 107l35 165q-20 -15 -41 -26l-64 -21q-85 -28 -120 -68.5t-35 -109.5zM303 1133l246 270h203l139 -270h-178l-78 165 l-135 -165h-197z" />
<glyph unicode="&#xe3;" horiz-adv-x="929" d="M2 236q0 105 42 186.5t114 116.5q36 17 168 53q12 3 31.5 8.5t50.5 14.5t57 16q79 23 109 54t30 89q0 37 -26.5 59.5t-69.5 22.5q-55 0 -88 -38.5t-41 -112.5h-279q20 113 46 168.5t77 95.5q104 82 297 82q183 0 276 -70t93 -207q0 -31 -17 -121l-88 -424 q-26 -128 -26 -178q0 -18 8 -51h-289l17 76q-63 -57 -120.5 -82t-125.5 -25q-115 0 -180.5 71t-65.5 196zM291 264q0 -38 24 -62t62 -24q51 0 88 39t51 107l35 165q-20 -15 -41 -26l-64 -21q-85 -28 -120 -68.5t-35 -109.5zM301 1141q55 221 195 221q20 0 33 -3.5t75 -25.5 q4 -1 6.5 -2t6.5 -2.5l8 -3t8 -2.5q74 -27 108 -27q26 0 42 16.5t28 53.5h111q-19 -104 -70 -162.5t-123 -58.5q-41 0 -123 31q-86 34 -117 34q-51 0 -71 -69h-117z" />
<glyph unicode="&#xe4;" horiz-adv-x="929" d="M2 236q0 105 42 186.5t114 116.5q36 17 168 53q12 3 31.5 8.5t50.5 14.5t57 16q79 23 109 54t30 89q0 37 -26.5 59.5t-69.5 22.5q-55 0 -88 -38.5t-41 -112.5h-279q20 113 46 168.5t77 95.5q104 82 297 82q183 0 276 -70t93 -207q0 -31 -17 -121l-88 -424 q-26 -128 -26 -178q0 -18 8 -51h-289l17 76q-63 -57 -120.5 -82t-125.5 -25q-115 0 -180.5 71t-65.5 196zM291 264q0 -38 24 -62t62 -24q51 0 88 39t51 107l35 165q-20 -15 -41 -26l-64 -21q-85 -28 -120 -68.5t-35 -109.5zM299 1147l49 227h225l-49 -227h-225zM645 1147 l49 227h226l-50 -227h-225z" />
<glyph unicode="&#xe5;" horiz-adv-x="929" d="M2 236q0 105 42 186.5t114 116.5q36 17 168 53q12 3 31.5 8.5t50.5 14.5t57 16q79 23 109 54t30 89q0 37 -26.5 59.5t-69.5 22.5q-55 0 -88 -38.5t-41 -112.5h-279q20 113 46 168.5t77 95.5q104 82 297 82q183 0 276 -70t93 -207q0 -31 -17 -121l-88 -424 q-26 -128 -26 -178q0 -18 8 -51h-289l17 76q-63 -57 -120.5 -82t-125.5 -25q-115 0 -180.5 71t-65.5 196zM291 264q0 -38 24 -62t62 -24q51 0 88 39t51 107l35 165q-20 -15 -41 -26l-64 -21q-85 -28 -120 -68.5t-35 -109.5zM387 1313q0 83 59 140.5t144 57.5q80 0 138 -58.5 t58 -139.5q0 -83 -58 -142t-140 -59q-83 0 -142 59t-59 142zM496 1313q0 -38 27 -65t65 -27q37 0 63.5 27t26.5 65q0 37 -26.5 63.5t-63.5 26.5q-38 0 -65 -26.5t-27 -63.5z" />
<glyph unicode="&#xe6;" horiz-adv-x="1394" d="M-4 236q0 93 33.5 169.5t91.5 116.5q41 29 75 40.5t195 49.5q125 31 172 64t47 90q0 41 -23.5 64.5t-66.5 23.5q-117 0 -135 -145h-283q25 178 124.5 260t291.5 82q86 0 144 -19.5t110 -66.5q65 47 124.5 66.5t141.5 19.5q163 0 249.5 -74.5t86.5 -214.5q0 -123 -45 -293 h-491q-35 -165 -35 -209q0 -37 27 -62.5t67 -25.5q47 0 75.5 39.5t51.5 140.5h281q-43 -200 -142 -291.5t-272 -91.5q-101 0 -163 23.5t-124 83.5q-86 -61 -153.5 -84t-161.5 -23q-149 0 -221 66t-72 201zM295 272q0 -96 88 -96q58 0 87.5 38t51.5 138l29 135 q-32 -19 -115 -47q-77 -26 -109 -64t-32 -104zM877 645h217q14 71 14 121q0 94 -90 94q-69 0 -98 -69q-18 -37 -43 -146z" />
<glyph unicode="&#xe7;" horiz-adv-x="874" d="M27 260q0 89 31 249t71 279q46 139 135 201t244 62q175 0 256 -66q96 -81 96 -227q0 -36 -10 -121h-279q17 95 17 129q0 36 -21 57t-57 21q-51 0 -75 -36t-50 -151q-76 -347 -76 -405q0 -32 23 -54t57 -22q52 0 80 48t53 179h279q-29 -220 -136 -330t-288 -104l-60 -96 q46 10 76 10q63 0 103.5 -34.5t40.5 -88.5q0 -72 -63.5 -114.5t-172.5 -42.5q-106 0 -223 49l45 74q93 -41 156 -41q40 0 65 18.5t25 48.5q0 25 -18.5 42.5t-45.5 17.5q-21 0 -72 -15l-34 49l84 129q-131 22 -193.5 91.5t-62.5 193.5z" />
<glyph unicode="&#xe8;" horiz-adv-x="880" d="M27 252q0 101 35.5 279.5t76.5 287.5q47 122 135 177t234 55q180 0 266 -75t86 -231q0 -90 -41 -276h-487q-39 -142 -39 -207q0 -43 24.5 -66.5t69.5 -23.5q50 0 80 42.5t47 137.5h281q-27 -105 -51.5 -163t-61.5 -103q-53 -63 -122 -90t-181 -27q-170 0 -261 73t-91 210 zM309 1399h248l119 -275h-164zM375 645h209q12 91 12 125q0 44 -21 68t-59 24q-76 0 -104 -74q-11 -32 -37 -143z" />
<glyph unicode="&#xe9;" horiz-adv-x="880" d="M27 252q0 101 35.5 279.5t76.5 287.5q47 122 135 177t234 55q180 0 266 -75t86 -231q0 -90 -41 -276h-487q-39 -142 -39 -207q0 -43 24.5 -66.5t69.5 -23.5q50 0 80 42.5t47 137.5h281q-27 -105 -51.5 -163t-61.5 -103q-53 -63 -122 -90t-181 -27q-170 0 -261 73t-91 210 zM375 645h209q12 91 12 125q0 44 -21 68t-59 24q-76 0 -104 -74q-11 -32 -37 -143zM451 1126l170 269h270l-281 -269h-159z" />
<glyph unicode="&#xea;" horiz-adv-x="880" d="M27 252q0 101 35.5 279.5t76.5 287.5q47 122 135 177t234 55q180 0 266 -75t86 -231q0 -90 -41 -276h-487q-39 -142 -39 -207q0 -43 24.5 -66.5t69.5 -23.5q50 0 80 42.5t47 137.5h281q-27 -105 -51.5 -163t-61.5 -103q-53 -63 -122 -90t-181 -27q-170 0 -261 73t-91 210 zM287 1133l245 270h203l139 -270h-178l-78 165l-135 -165h-196zM375 645h209q12 91 12 125q0 44 -21 68t-59 24q-76 0 -104 -74q-11 -32 -37 -143z" />
<glyph unicode="&#xeb;" horiz-adv-x="880" d="M27 252q0 101 35.5 279.5t76.5 287.5q47 122 135 177t234 55q180 0 266 -75t86 -231q0 -90 -41 -276h-487q-39 -142 -39 -207q0 -43 24.5 -66.5t69.5 -23.5q50 0 80 42.5t47 137.5h281q-27 -105 -51.5 -163t-61.5 -103q-53 -63 -122 -90t-181 -27q-170 0 -261 73t-91 210 zM274 1147l50 227h225l-49 -227h-226zM375 645h209q12 91 12 125q0 44 -21 68t-59 24q-76 0 -104 -74q-11 -32 -37 -143zM621 1147l49 227h225l-49 -227h-225z" />
<glyph unicode="&#xec;" horiz-adv-x="462" d="M-25 0l218 1020h292l-217 -1020h-293zM80 1399h248l118 -275h-163z" />
<glyph unicode="&#xed;" horiz-adv-x="462" d="M-25 0l218 1020h292l-217 -1020h-293zM283 1126l170 269h270l-281 -269h-159z" />
<glyph unicode="&#xee;" horiz-adv-x="462" d="M-25 0l218 1020h292l-217 -1020h-293zM63 1133l246 270h203l139 -270h-178l-78 165l-135 -165h-197z" />
<glyph unicode="&#xef;" horiz-adv-x="462" d="M-25 0l218 1020h292l-217 -1020h-293zM109 1145l45 217h200l-47 -217h-198zM424 1145l45 217h201l-45 -217h-201z" />
<glyph unicode="&#xf0;" horiz-adv-x="892" d="M31 283q0 95 33.5 268.5t68.5 261.5q99 240 338 240q67 0 150 -45q-9 46 -23 85t-49 117l-131 -69l-47 86l137 73l-39 80l129 66q6 -10 49 -72l137 74l47 -88l-129 -68q91 -146 130.5 -255t39.5 -212q0 -186 -84 -508q-54 -200 -139 -274t-262 -74q-96 0 -159.5 18.5 t-110.5 59.5q-46 40 -66 94.5t-20 141.5zM309 262q0 -41 21.5 -63.5t60.5 -22.5q35 0 57 19t35 63q23 72 56.5 243.5t52.5 315.5q-63 27 -88 27q-64 0 -92 -70q-20 -49 -61.5 -255t-41.5 -257z" />
<glyph unicode="&#xf1;" horiz-adv-x="923" d="M-25 0l218 1020h268l-23 -100q108 131 246 131q95 0 152 -57t57 -152q0 -71 -12 -125l-154 -717h-293l148 690q12 54 12 86q0 28 -16.5 45t-42.5 17q-86 0 -129 -195l-138 -643h-293zM313 1141q55 221 195 221q20 0 33 -3.5t75 -25.5q4 -1 6.5 -2t6.5 -2.5l8 -3t8 -2.5 q74 -27 109 -27q26 0 41.5 16t27.5 54h111q-19 -104 -70 -162.5t-123 -58.5q-41 0 -123 31q-86 34 -116 34q-52 0 -72 -69h-117z" />
<glyph unicode="&#xf2;" horiz-adv-x="892" d="M29 272q0 93 35 265.5t75 273.5q51 128 137 184t232 56q181 0 269.5 -74t88.5 -225q0 -89 -33.5 -251.5t-74.5 -275.5q-51 -140 -136 -198t-239 -58q-354 0 -354 303zM297 1399h248l119 -275h-164zM307 270q0 -94 84 -94q41 0 64 33t45 123q84 366 84 428q0 84 -78 84 q-43 0 -68 -31.5t-45 -114.5q-25 -100 -55.5 -252.5t-30.5 -175.5z" />
<glyph unicode="&#xf3;" horiz-adv-x="892" d="M29 272q0 93 35 265.5t75 273.5q51 128 137 184t232 56q181 0 269.5 -74t88.5 -225q0 -89 -33.5 -251.5t-74.5 -275.5q-51 -140 -136 -198t-239 -58q-354 0 -354 303zM307 270q0 -94 84 -94q41 0 64 33t45 123q84 366 84 428q0 84 -78 84q-43 0 -68 -31.5t-45 -114.5 q-25 -100 -55.5 -252.5t-30.5 -175.5zM453 1126l170 269h270l-281 -269h-159z" />
<glyph unicode="&#xf4;" horiz-adv-x="892" d="M29 272q0 93 35 265.5t75 273.5q51 128 137 184t232 56q181 0 269.5 -74t88.5 -225q0 -89 -33.5 -251.5t-74.5 -275.5q-51 -140 -136 -198t-239 -58q-354 0 -354 303zM260 1133l246 270h203l139 -270h-178l-78 165l-135 -165h-197zM307 270q0 -94 84 -94q41 0 64 33 t45 123q84 366 84 428q0 84 -78 84q-43 0 -68 -31.5t-45 -114.5q-25 -100 -55.5 -252.5t-30.5 -175.5z" />
<glyph unicode="&#xf5;" horiz-adv-x="892" d="M29 272q0 93 35 265.5t75 273.5q51 128 137 184t232 56q181 0 269.5 -74t88.5 -225q0 -89 -33.5 -251.5t-74.5 -275.5q-51 -140 -136 -198t-239 -58q-354 0 -354 303zM301 1141q55 221 195 221q20 0 33 -3.5t75 -25.5q4 -1 6.5 -2t6.5 -2.5l8 -3t8 -2.5q74 -27 108 -27 q26 0 42 16.5t28 53.5h111q-19 -104 -70 -162.5t-123 -58.5q-41 0 -123 31q-86 34 -117 34q-51 0 -71 -69h-117zM307 270q0 -94 84 -94q41 0 64 33t45 123q84 366 84 428q0 84 -78 84q-43 0 -68 -31.5t-45 -114.5q-25 -100 -55.5 -252.5t-30.5 -175.5z" />
<glyph unicode="&#xf6;" horiz-adv-x="892" d="M29 272q0 93 35 265.5t75 273.5q51 128 137 184t232 56q181 0 269.5 -74t88.5 -225q0 -89 -33.5 -251.5t-74.5 -275.5q-51 -140 -136 -198t-239 -58q-354 0 -354 303zM303 1147l49 227h226l-50 -227h-225zM307 270q0 -94 84 -94q41 0 64 33t45 123q84 366 84 428 q0 84 -78 84q-43 0 -68 -31.5t-45 -114.5q-25 -100 -55.5 -252.5t-30.5 -175.5zM649 1147l49 227h226l-50 -227h-225z" />
<glyph unicode="&#xf7;" horiz-adv-x="974" d="M160 631l39 184h690l-39 -184h-690zM317 354q0 57 40 96t96 39q54 0 93.5 -40t39.5 -95q0 -54 -39.5 -93.5t-93.5 -39.5q-55 0 -95.5 39.5t-40.5 93.5zM465 1092q0 57 39.5 96t95.5 39q54 0 93.5 -40t39.5 -95q0 -54 -39.5 -94t-93.5 -40q-55 0 -95 40t-40 94z" />
<glyph unicode="&#xf8;" horiz-adv-x="890" d="M-47 4l98 121q-28 60 -28 135q0 181 49.5 375.5t117.5 277.5q112 138 314 138q149 0 250 -68l75 102l86 -67l-86 -109q35 -82 35 -143q0 -169 -54.5 -375t-121.5 -289q-57 -72 -125 -102.5t-168 -30.5q-91 0 -155 16.5t-123 53.5l-84 -105zM299 248q6 -82 84 -82 q41 0 66 28.5t45 100.5q8 30 73 321zM315 403l271 371q-2 33 -24 52.5t-58 19.5q-49 0 -77 -41.5t-48 -145.5q-19 -96 -64 -256z" />
<glyph unicode="&#xf9;" horiz-adv-x="923" d="M25 178q0 50 20 152l148 690h292l-143 -676q-16 -82 -16 -96q0 -28 17.5 -47t43.5 -19q85 0 129 201l137 637h291l-217 -1020h-268l22 98q-108 -129 -250 -129q-89 0 -147.5 59t-58.5 150zM303 1399h248l119 -275h-164z" />
<glyph unicode="&#xfa;" horiz-adv-x="923" d="M25 178q0 50 20 152l148 690h292l-143 -676q-16 -82 -16 -96q0 -28 17.5 -47t43.5 -19q85 0 129 201l137 637h291l-217 -1020h-268l22 98q-108 -129 -250 -129q-89 0 -147.5 59t-58.5 150zM506 1126l170 269h270l-280 -269h-160z" />
<glyph unicode="&#xfb;" horiz-adv-x="923" d="M25 178q0 50 20 152l148 690h292l-143 -676q-16 -82 -16 -96q0 -28 17.5 -47t43.5 -19q85 0 129 201l137 637h291l-217 -1020h-268l22 98q-108 -129 -250 -129q-89 0 -147.5 59t-58.5 150zM301 1133l246 270h203l139 -270h-178l-78 165l-135 -165h-197z" />
<glyph unicode="&#xfc;" horiz-adv-x="923" d="M25 178q0 50 20 152l148 690h292l-143 -676q-16 -82 -16 -96q0 -28 17.5 -47t43.5 -19q85 0 129 201l137 637h291l-217 -1020h-268l22 98q-108 -129 -250 -129q-89 0 -147.5 59t-58.5 150zM317 1147l50 227h225l-49 -227h-226zM664 1147l49 227h225l-49 -227h-225z" />
<glyph unicode="&#xfd;" horiz-adv-x="778" d="M-76 -330l43 203q41 -10 70 -10q48 0 70 28t22 89v28l-29 1012h279l-23 -637l228 637h299l-467 -1133q-57 -138 -121.5 -185.5t-192.5 -47.5q-53 0 -178 16zM414 1126l170 269h270l-281 -269h-159z" />
<glyph unicode="&#xfe;" horiz-adv-x="915" d="M-96 -342l362 1708h262l-90 -428q66 63 119 88t121 25q103 0 161 -62t58 -172q0 -92 -29.5 -252.5t-72.5 -298.5q-47 -155 -117 -226t-176 -71q-77 0 -126 41.5t-77 130.5l-102 -483h-293zM346 313q0 -43 19 -67.5t53 -24.5q42 0 64.5 31t47.5 123q29 109 51.5 224 t22.5 161q0 40 -18.5 63t-50.5 23q-43 0 -69.5 -37t-49.5 -131q-23 -88 -46.5 -211.5t-23.5 -153.5z" />
<glyph unicode="&#xff;" horiz-adv-x="778" d="M-76 -330l43 203q41 -10 70 -10q48 0 70 28t22 89v28l-29 1012h279l-23 -637l228 637h299l-467 -1133q-57 -138 -121.5 -185.5t-192.5 -47.5q-53 0 -178 16zM223 1147l49 227h226l-49 -227h-226zM569 1147l49 227h226l-49 -227h-226z" />
<glyph unicode="&#x152;" horiz-adv-x="1447" d="M59 322q0 125 50 376.5t104 395.5q62 166 156.5 236.5t255.5 70.5q110 0 160 -28.5t81 -110.5l23 104h653l-55 -268h-406l-55 -256h393l-57 -267h-391l-66 -309h426l-55 -266h-645l26 109q-50 -83 -106 -113.5t-162 -30.5q-173 0 -251.5 85t-78.5 272zM369 328 q0 -52 24.5 -80.5t69.5 -28.5q76 0 115 94q12 34 26 96t88 402q32 146 37.5 175.5t5.5 60.5q0 46 -26 73t-70 27q-54 0 -83 -40.5t-58 -154.5q-37 -151 -83 -372.5t-46 -251.5z" />
<glyph unicode="&#x153;" horiz-adv-x="1380" d="M27 252q0 95 32 265.5t70 273.5q51 140 140.5 200t246.5 60q86 0 142.5 -20.5t99.5 -67.5q110 88 268 88q163 0 249.5 -75t86.5 -216q0 -107 -43 -291h-492q-32 -141 -32 -207q0 -40 25.5 -65t66.5 -25q47 0 74.5 39t52.5 143h280q-24 -104 -48.5 -162.5t-65.5 -103.5 q-107 -119 -295 -119q-82 0 -133.5 16t-116.5 60q-62 -43 -118 -59.5t-146 -16.5q-161 0 -252.5 75.5t-91.5 207.5zM307 268q0 -41 23.5 -65.5t64.5 -24.5q42 0 65.5 29t43.5 108q35 134 61.5 272t26.5 181q0 34 -23 56t-59 22q-41 0 -63 -24.5t-44 -96.5 q-28 -98 -62 -259.5t-34 -197.5zM866 647h215q17 89 17 117q0 47 -23.5 73.5t-64.5 26.5q-59 0 -89 -45.5t-55 -171.5z" />
<glyph unicode="&#x178;" horiz-adv-x="929" d="M152 1366h331l76 -412l197 412h362l-442 -756l-129 -610h-326l135 637zM391 1507l45 215h226l-48 -215h-223zM709 1507l45 215h225l-47 -215h-223z" />
<glyph unicode="&#x2c6;" horiz-adv-x="1024" d="M303 1133l246 270h203l139 -270h-178l-78 165l-135 -165h-197z" />
<glyph unicode="&#x2dc;" horiz-adv-x="1024" d="M344 1141q55 221 195 221q20 0 33 -3.5t75 -25.5q4 -1 6.5 -2t6.5 -2.5l8 -3t8 -2.5q74 -27 108 -27q26 0 42 16.5t28 53.5h111q-19 -104 -70 -162.5t-123 -58.5q-41 0 -123 31q-86 34 -117 34q-51 0 -71 -69h-117z" />
<glyph unicode="&#x2000;" horiz-adv-x="925" />
<glyph unicode="&#x2001;" horiz-adv-x="1851" />
<glyph unicode="&#x2002;" horiz-adv-x="925" />
<glyph unicode="&#x2003;" horiz-adv-x="1851" />
<glyph unicode="&#x2004;" horiz-adv-x="617" />
<glyph unicode="&#x2005;" horiz-adv-x="462" />
<glyph unicode="&#x2006;" horiz-adv-x="308" />
<glyph unicode="&#x2007;" horiz-adv-x="308" />
<glyph unicode="&#x2008;" horiz-adv-x="231" />
<glyph unicode="&#x2009;" horiz-adv-x="370" />
<glyph unicode="&#x200a;" horiz-adv-x="102" />
<glyph unicode="&#x2010;" horiz-adv-x="382" d="M-29 377l56 260h381l-54 -260h-383z" />
<glyph unicode="&#x2011;" horiz-adv-x="382" d="M-29 377l56 260h381l-54 -260h-383z" />
<glyph unicode="&#x2012;" horiz-adv-x="382" d="M-29 377l56 260h381l-54 -260h-383z" />
<glyph unicode="&#x2013;" horiz-adv-x="921" d="M57 377l56 260h749l-53 -260h-752z" />
<glyph unicode="&#x2014;" horiz-adv-x="1161" d="M-29 377l56 260h1159l-53 -260h-1162z" />
<glyph unicode="&#x2018;" horiz-adv-x="487" d="M147 801l58 272q35 167 123 243.5t247 76.5l-22 -105q-86 -4 -127 -43t-64 -137h168l-65 -307h-318z" />
<glyph unicode="&#x2019;" horiz-adv-x="487" d="M176 834l21 94q76 4 113 39t59 123h-152l59 276h285l-51 -246q-31 -150 -110.5 -218t-223.5 -68z" />
<glyph unicode="&#x201a;" horiz-adv-x="487" d="M-49 -256l20 94q76 4 113 39t59 123h-151l59 276h285l-51 -245q-31 -150 -110.5 -218.5t-223.5 -68.5z" />
<glyph unicode="&#x201c;" horiz-adv-x="933" d="M147 801l58 272q35 167 123 243.5t247 76.5l-22 -105q-86 -4 -127 -43t-64 -137h168l-65 -307h-318zM594 801l57 272q35 167 123.5 243.5t247.5 76.5l-23 -105q-86 -4 -126.5 -42.5t-65.5 -137.5h168l-64 -307h-317z" />
<glyph unicode="&#x201d;" horiz-adv-x="933" d="M156 774l22 105q86 4 127 42.5t66 137.5h-170l65 307h318l-58 -272q-35 -166 -123 -242.5t-247 -77.5zM602 774l23 105q86 4 126.5 42.5t63.5 137.5h-168l66 307h317l-57 -272q-35 -166 -123.5 -242.5t-247.5 -77.5z" />
<glyph unicode="&#x201e;" horiz-adv-x="933" d="M-70 -285l23 105q86 4 126.5 42.5t65.5 137.5h-170l66 307h317l-57 -272q-35 -167 -123.5 -243.5t-247.5 -76.5zM377 -285l22 105q86 4 127 43t64 137h-168l65 307h318l-57 -272q-35 -167 -123.5 -243.5t-247.5 -76.5z" />
<glyph unicode="&#x2022;" horiz-adv-x="1366" d="M401 692q0 120 83.5 202.5t203.5 82.5q115 0 198 -84t83 -201t-83 -199.5t-200 -82.5q-118 0 -201.5 82.5t-83.5 199.5z" />
<glyph unicode="&#x2026;" horiz-adv-x="1460" d="M-25 0l66 307h315l-65 -307h-316zM463 0l65 307h316l-66 -307h-315zM948 0l66 307h315l-65 -307h-316z" />
<glyph unicode="&#x202f;" horiz-adv-x="370" />
<glyph unicode="&#x2039;" horiz-adv-x="477" d="M25 412l45 213l395 235l-55 -262l-207 -102l170 -125l-51 -219z" />
<glyph unicode="&#x203a;" horiz-adv-x="477" d="M10 152l56 262l206 102l-170 125l52 219l297 -258l-45 -213z" />
<glyph unicode="&#x205f;" horiz-adv-x="462" />
<glyph unicode="&#x20ac;" horiz-adv-x="1136" d="M51 526l49 117h121l15 64h-152l49 118h129q63 257 113 353q59 114 155.5 168.5t241.5 54.5q387 0 387 -352q0 -79 -20 -181h-312q31 124 31 176q0 107 -94 107q-47 0 -76.5 -32t-54.5 -111q-10 -31 -43 -183h184l-49 -116h-160l-8 -33l-6 -33h145l-49 -117h-121l-12 -63 q-22 -103 -22 -150q0 -46 25.5 -74t68.5 -28q38 0 65 18.5t45.5 66t25.5 75.5t21 99q5 23 7 34h311q-36 -164 -68 -249t-84 -149q-60 -74 -141 -107.5t-199 -33.5q-193 0 -291 88.5t-98 261.5q0 82 21 211h-150z" />
<glyph unicode="&#x2122;" horiz-adv-x="1372" d="M168 1200l35 166h493l-34 -166h-140l-131 -612h-203l138 612h-158zM608 588l164 778h252v-477l199 477h260l-166 -778h-174l117 545l-226 -545h-139l4 545l-115 -545h-176z" />
</font>
</defs>
</svg>
